<svg version="1.1" xmlns="http://www.w3.org/2000/svg" viewBox="0 0 592 240" width="1184" height="480">
  <!-- svg-source:excalidraw -->
  
  <defs>
    <style>
      @font-face {
        font-family: "Virgil";
        src: url("https://excalidraw.com/Virgil.woff2");
      }
      @font-face {
        font-family: "Cascadia";
        src: url("https://excalidraw.com/Cascadia.woff2");
      }
    </style>
  </defs>
  <g stroke-linecap="round" transform="translate(10 12.5) rotate(0 78 38.5)"><path d="M0.31 1.18 C54.32 3.14, 107.84 3.16, 154.13 -1.5 M0.38 -0.21 C45.33 -1.26, 89.12 0.54, 156.88 0.87 M157.81 -0.57 C154.03 22.79, 156.35 47.03, 155.35 77.34 M155.48 -0.69 C155.36 24.02, 156.67 48.36, 156.08 76.31 M154.51 76.42 C107 77.99, 55.55 77.71, 1.45 76.98 M156.3 76.49 C123.27 77.18, 89.29 76.91, 0.95 77.37 M0.36 78.49 C-1.1 60.64, -0.12 41.65, 1.46 -1.42 M-0.17 76.74 C1.71 57.91, 1.26 39.15, -0.77 -0.24" stroke="#000000" stroke-width="1" fill="none"></path></g><g transform="translate(31.5 26) rotate(0 59 26)"><text x="59" y="18" font-family="Virgil, Segoe UI Emoji" font-size="20px" fill="#000000" text-anchor="middle" style="white-space: pre;" direction="ltr">Interceptor1</text><text x="59" y="44" font-family="Virgil, Segoe UI Emoji" font-size="20px" fill="#000000" text-anchor="middle" style="white-space: pre;" direction="ltr">Enter</text></g><g stroke-linecap="round" transform="translate(218 12) rotate(0 78 38.5)"><path d="M0.79 1.84 C38.33 -1.17, 73.79 0.74, 155.31 -0.21 M0.42 0.06 C41 0.93, 82.72 0.93, 156.33 0.93 M157.97 0.02 C156.87 21.51, 155.46 39.9, 154.14 75.45 M155.36 0.92 C156.5 18.3, 156.78 36.61, 155.26 77.57 M155.78 75.46 C119.1 79.58, 85.38 76.17, 0.65 77 M156.72 76.96 C100.09 77.53, 43.38 78.95, 0.71 76.18 M-1.85 77.86 C0.44 56.16, -1.61 33.88, 1.09 -0.05 M0.72 77.09 C-0.13 52.34, 0.16 27, 0.42 0.07" stroke="#000000" stroke-width="1" fill="none"></path></g><g transform="translate(236 26.5) rotate(0 63.5 26)"><text x="63.5" y="18" font-family="Virgil, Segoe UI Emoji" font-size="20px" fill="#000000" text-anchor="middle" style="white-space: pre;" direction="ltr">Interceptor2</text><text x="63.5" y="44" font-family="Virgil, Segoe UI Emoji" font-size="20px" fill="#000000" text-anchor="middle" style="white-space: pre;" direction="ltr">Enter</text></g><g stroke-linecap="round" transform="translate(419 10) rotate(0 78 38.5)"><path d="M-0.76 -1.06 C46.83 2.28, 92.57 0.51, 155.68 0.79 M0.92 0.33 C44.85 0.4, 87.83 -0.09, 155.76 0.98 M157.72 -0.77 C156.75 24.78, 155.97 52.47, 157.32 75.59 M156.97 -0.92 C156.47 17.91, 155.23 37.5, 156.86 76.21 M154.66 75.06 C120.65 77.73, 85.77 75.87, -1.41 77.79 M156.05 76.83 C124.5 78.46, 93.76 77.84, 0.07 76.63 M1.37 78.66 C1.19 60.14, 0 38.83, -1.68 1.95 M0.36 76.17 C-0.27 48.13, -0.42 21, 0.12 -0.64" stroke="#000000" stroke-width="1" fill="none"></path></g><g transform="translate(436 24.5) rotate(0 63.5 26)"><text x="63.5" y="18" font-family="Virgil, Segoe UI Emoji" font-size="20px" fill="#000000" text-anchor="middle" style="white-space: pre;" direction="ltr">Interceptor3</text><text x="63.5" y="44" font-family="Virgil, Segoe UI Emoji" font-size="20px" fill="#000000" text-anchor="middle" style="white-space: pre;" direction="ltr">Enter</text></g><g stroke-linecap="round" transform="translate(426 153) rotate(0 78 38.5)"><path d="M0.14 0.53 C40.05 2.64, 76.16 0.13, 156.87 0.03 M0.75 0.27 C60.36 1.11, 121.7 1.94, 156.33 0.09 M156.98 -1.37 C156.96 16.49, 157.61 32.91, 156.75 76.32 M155.69 -0.27 C157.07 23.05, 156 44.78, 156.93 76.05 M157.73 78.74 C109.37 77.17, 66.04 74.84, -0.26 75.36 M155.92 77.41 C95.73 77.81, 34.93 76.89, 0.23 77.57 M0.86 78.29 C-0.38 52.44, -0.8 27.41, 1.11 1.88 M0.79 77.98 C0.22 49.3, -0.34 20.91, -0.15 1" stroke="#000000" stroke-width="1" fill="none"></path></g><g transform="translate(441 169.5) rotate(0 63.5 26)"><text x="63.5" y="18" font-family="Virgil, Segoe UI Emoji" font-size="20px" fill="#000000" text-anchor="middle" style="white-space: pre;" direction="ltr">Interceptor3</text><text x="63.5" y="44" font-family="Virgil, Segoe UI Emoji" font-size="20px" fill="#000000" text-anchor="middle" style="white-space: pre;" direction="ltr">Exit</text></g><g stroke-linecap="round" transform="translate(220 153) rotate(0 78 38.5)"><path d="M1.74 -1.96 C44.18 0.92, 87.77 2.1, 156.77 -0.34 M-0.32 0.48 C57.7 -0.46, 117.12 0.06, 155.65 -0.45 M156.83 -1.75 C156.09 18.25, 157.56 34.32, 154.49 78.59 M156.74 -0.81 C156.05 19.57, 156.6 40.47, 155.49 76.11 M154.1 77.39 C121.81 74.91, 92.66 76.29, 0.3 77.79 M156.85 76.77 C100.76 74.83, 44.08 76.6, -0.55 76.62 M-1.02 77.82 C-0.77 53.58, -0.81 26.95, 1.69 -0.55 M0.5 77.38 C0.06 54.75, -0.4 32.79, -0.68 -1" stroke="#000000" stroke-width="1" fill="none"></path></g><g transform="translate(237 166.5) rotate(0 63.5 26)"><text x="63.5" y="18" font-family="Virgil, Segoe UI Emoji" font-size="20px" fill="#000000" text-anchor="middle" style="white-space: pre;" direction="ltr">Interceptor2</text><text x="63.5" y="44" font-family="Virgil, Segoe UI Emoji" font-size="20px" fill="#000000" text-anchor="middle" style="white-space: pre;" direction="ltr">Exit</text></g><g stroke-linecap="round" transform="translate(11 153) rotate(0 78 38.5)"><path d="M1.51 0.12 C61.01 0.94, 121.3 0.16, 156.37 0.56 M0.41 0.34 C35.56 0.54, 71.9 1.42, 155.38 -0.72 M157.03 -0.85 C154.89 27.77, 156.62 51.54, 156.69 77.92 M156.01 -0.27 C156.12 17.33, 154.82 37.4, 156.44 76.57 M154.2 75.25 C100.06 78.33, 48.22 80.22, -0.43 77.75 M155.94 77.79 C92.78 76.34, 32.24 76.87, 0.45 76.49 M-1.24 77.97 C1.3 60.17, 0.6 44.37, 1.31 -0.85 M-0.51 76.58 C-1.41 58.85, -0.33 41.04, 0.08 -0.37" stroke="#000000" stroke-width="1" fill="none"></path></g><g transform="translate(32.5 166.5) rotate(0 59 26)"><text x="59" y="18" font-family="Virgil, Segoe UI Emoji" font-size="20px" fill="#000000" text-anchor="middle" style="white-space: pre;" direction="ltr">Interceptor1</text><text x="59" y="44" font-family="Virgil, Segoe UI Emoji" font-size="20px" fill="#000000" text-anchor="middle" style="white-space: pre;" direction="ltr">Exit</text></g><g stroke-linecap="round"><g transform="translate(167 54.5) rotate(0 26.323464424358633 -1.1473327443003996)"><path d="M1 0.06 C9.31 -0.47, 42.03 -2.13, 50.26 -2.35 M0.07 -0.96 C8.73 -1.38, 44.39 -0.62, 52.58 -1" stroke="#000000" stroke-width="1" fill="none"></path></g><g transform="translate(167 54.5) rotate(0 26.323464424358633 -1.1473327443003996)"><path d="M28.76 6.67 C35.99 3.65, 45.76 2.95, 51.04 -0.47 M28.8 7.05 C34.9 5.25, 40.37 2.28, 53.42 -1.61" stroke="#000000" stroke-width="1" fill="none"></path></g><g transform="translate(167 54.5) rotate(0 26.323464424358633 -1.1473327443003996)"><path d="M28.63 -10.79 C36.02 -8, 45.83 -2.88, 51.04 -0.47 M28.67 -10.4 C34.77 -7.57, 40.27 -5.92, 53.42 -1.61" stroke="#000000" stroke-width="1" fill="none"></path></g></g><g stroke-linecap="round"><g transform="translate(374 51.5) rotate(0 22.271048279106594 0.2515256136050539)"><path d="M-0.76 0.01 C6.72 0.44, 37.51 1.37, 45.3 1.53 M1.04 -1.03 C8.36 -0.86, 37.06 -0.86, 44.51 -0.31" stroke="#000000" stroke-width="1" fill="none"></path></g><g transform="translate(374 51.5) rotate(0 22.271048279106594 0.2515256136050539)"><path d="M23.15 7.2 C31.19 6.16, 37.34 3.54, 44.13 -1.75 M23.77 7.14 C32.03 3.67, 40.09 1.54, 43.75 0.46" stroke="#000000" stroke-width="1" fill="none"></path></g><g transform="translate(374 51.5) rotate(0 22.271048279106594 0.2515256136050539)"><path d="M23.64 -8.18 C31.39 -4.11, 37.37 -1.62, 44.13 -1.75 M24.27 -8.25 C32.35 -5.9, 40.22 -2.21, 43.75 0.46" stroke="#000000" stroke-width="1" fill="none"></path></g></g><g stroke-linecap="round"><g transform="translate(500 87.5) rotate(0 0.5076764628291244 31.517979919714833)"><path d="M-0.77 0.18 C-0.46 10.66, 1.39 51.94, 1.78 62.52 M1.03 -0.77 C1.16 9.91, 0.79 53.4, 0.72 63.8" stroke="#000000" stroke-width="1" fill="none"></path></g><g transform="translate(500 87.5) rotate(0 0.5076764628291244 31.517979919714833)"><path d="M-9.03 35.17 C-7.23 43.31, -2.36 53.38, 0.21 62.11 M-8.91 36.38 C-6.61 44.98, -3.66 53.71, 0.81 63.37" stroke="#000000" stroke-width="1" fill="none"></path></g><g transform="translate(500 87.5) rotate(0 0.5076764628291244 31.517979919714833)"><path d="M11.49 35.33 C7.19 43.28, 5.96 53.32, 0.21 62.11 M11.61 36.53 C7.06 45.07, 3.15 53.75, 0.81 63.37" stroke="#000000" stroke-width="1" fill="none"></path></g></g><g stroke-linecap="round"><g transform="translate(423 190.5) rotate(0 -23.27893412535542 -0.787774924933899)"><path d="M1.07 -0.12 C-6.86 -0.51, -38.82 -1.26, -47.13 -1.46 M0.17 -1.23 C-7.87 -1.53, -39.87 -0.34, -47.62 -0.16" stroke="#000000" stroke-width="1" fill="none"></path></g><g transform="translate(423 190.5) rotate(0 -23.27893412535542 -0.787774924933899)"><path d="M-25.52 -7.6 C-33.46 -7.27, -40.62 -2.08, -48.77 -0.09 M-24.43 -9.06 C-30.09 -6.88, -33.95 -4.74, -47.17 -0.17" stroke="#000000" stroke-width="1" fill="none"></path></g><g transform="translate(423 190.5) rotate(0 -23.27893412535542 -0.787774924933899)"><path d="M-25.03 8.81 C-33.25 3.67, -40.58 3.38, -48.77 -0.09 M-23.94 7.35 C-29.73 6.08, -33.7 4.76, -47.17 -0.17" stroke="#000000" stroke-width="1" fill="none"></path></g></g><g stroke-linecap="round"><g transform="translate(218 191.5) rotate(0 -25.40127706711644 0.31043495873916527)"><path d="M0.32 -0.73 C-8.11 -0.74, -42.28 0.76, -50.81 0.81 M-0.96 1.5 C-9.43 1.08, -42.8 -0.74, -51.13 -0.88" stroke="#000000" stroke-width="1" fill="none"></path></g><g transform="translate(218 191.5) rotate(0 -25.40127706711644 0.31043495873916527)"><path d="M-27.59 -6.84 C-31.91 -4.53, -40.93 -4.08, -50.91 0.81 M-26.37 -8.48 C-35.81 -5.89, -45.15 -3.01, -51.26 0.11" stroke="#000000" stroke-width="1" fill="none"></path></g><g transform="translate(218 191.5) rotate(0 -25.40127706711644 0.31043495873916527)"><path d="M-28.27 10.93 C-32.53 8.24, -41.36 3.7, -50.91 0.81 M-27.05 9.29 C-36.3 5.24, -45.38 1.48, -51.26 0.11" stroke="#000000" stroke-width="1" fill="none"></path></g></g></svg>